<svg width="90" height="90" viewBox="0 0 90 90" fill="none" xmlns="http://www.w3.org/2000/svg">
<path d="M22.5 43.5249V67.4999H46.475L41.475 62.4999H27.5V48.5249L22.5 43.5249Z" fill="#3f37c9"/>
<path d="M87.175 80.7249L80.0001 73.4499V79.9999H10V69.6249H15V65.6249H10V48.9999H15V44.9999H10V28.9999H15V24.9999H10V11.0249L49.85 50.6499V43.5999L9.27504 3.22489C8.92537 2.87232 8.47861 2.63187 7.99174 2.53419C7.50488 2.43652 6.99995 2.48605 6.54134 2.67646C6.08273 2.86688 5.69121 3.18956 5.41671 3.60336C5.14221 4.01716 4.99715 4.50333 5.00004 4.99989V82.4999C5.00004 83.1629 5.26343 83.7988 5.73228 84.2677C6.20112 84.7365 6.837 84.9999 7.50004 84.9999H85.4C85.8966 85.0028 86.3828 84.8577 86.7966 84.5832C87.2104 84.3087 87.5331 83.9172 87.7235 83.4586C87.9139 83 87.9634 82.4951 87.8657 82.0082C87.7681 81.5213 87.5276 81.0746 87.175 80.7249V80.7249Z" fill="#3f37c9"/>
<path d="M60 75H70C71.3261 75 72.5979 74.4733 73.5355 73.5356C74.4732 72.5979 75 71.3261 75 70V21.75L69.25 11.175C68.8053 10.4046 68.1631 9.76674 67.3896 9.32728C66.6162 8.88782 65.7395 8.66266 64.85 8.67505C63.9404 8.68226 63.0499 8.9375 62.2746 9.41327C61.4993 9.88905 60.8684 10.5673 60.45 11.375L55 21.8V70C55 71.3261 55.5268 72.5979 56.4645 73.5356C57.4021 74.4733 58.6739 75 60 75ZM60 23L64.85 13.575L70 23.025V60H60V23ZM60 64.075H70V70.175H60V64.075Z" fill="#3f37c9"/>
</svg>
