<svg width="90" height="90" viewBox="0 0 90 90" fill="none" xmlns="http://www.w3.org/2000/svg">
<path d="M45 36.9729C40.5759 36.9729 36.9731 40.5757 36.9731 44.9997C36.9731 49.4238 40.5759 53.0266 45 53.0266C49.4241 53.0266 53.0269 49.4238 53.0269 44.9997C53.0269 40.5757 49.4241 36.9729 45 36.9729ZM22.5281 60.9522L20.7563 60.5135C7.57125 57.1722 0 51.5191 0 44.9857C0 38.4522 7.57406 32.7991 20.7563 29.4579L22.5281 29.0191L23.0259 30.7769C24.3635 35.381 26.0735 39.8687 28.1391 44.1954L28.5188 44.9857L28.1391 45.79C26.0692 50.1149 24.359 54.6029 23.0259 59.2085L22.5281 60.9522ZM19.9378 33.5585C9.91688 36.371 3.76594 40.691 3.76594 44.9857C3.76594 49.2804 9.91969 53.5835 19.9378 56.4129C21.1659 52.5109 22.6484 48.6937 24.3759 44.9857C22.646 41.2787 21.1634 37.4613 19.9378 33.5585V33.5585ZM67.4719 60.9522L66.9741 59.1944C65.6389 54.5941 63.9288 50.1109 61.8609 45.79L61.4813 44.9857L61.8609 44.1813C63.9308 39.8564 65.641 35.3685 66.9741 30.7629L67.4719 29.0191L69.2438 29.4579C82.4288 32.7991 90 38.4522 90 44.9857C90 51.5191 82.4259 57.1722 69.2438 60.5135L67.4719 60.9522ZM65.6241 44.9857C67.3573 48.6912 68.84 52.5088 70.0622 56.4129C80.0972 53.5863 86.2341 49.2804 86.2341 44.9857C86.2341 40.691 80.0803 36.3879 70.0622 33.5585C68.8312 37.4594 67.3487 41.2765 65.6241 44.9857ZM19.9069 33.5444L19.4091 31.7866C15.7022 18.7197 16.83 9.34567 22.5 6.07754C28.0659 2.86848 36.9872 6.66254 46.3472 16.2729L47.6212 17.5779L46.3472 18.8829C43.0232 22.3412 39.986 26.0641 37.2656 30.0147L36.7537 30.7319L35.8734 30.805C31.0879 31.1828 26.3408 31.9475 21.6788 33.0916L19.9069 33.5444ZM27.0253 8.68754C26.0156 8.68754 25.1213 8.89286 24.3731 9.33161C20.6522 11.486 19.9941 18.956 22.5563 29.0332C26.5541 28.1389 30.6062 27.5075 34.6866 27.1432C37.0357 23.7974 39.6045 20.6113 42.3759 17.606C36.5316 11.9079 30.9938 8.68473 27.0253 8.68473V8.68754ZM62.9887 85.0329C62.9747 85.0329 62.9747 85.0329 62.9887 85.0329C57.6422 85.0329 50.7712 81.0194 43.6528 73.6957L42.3787 72.3907L43.6528 71.0857C46.9768 67.6274 50.014 63.9045 52.7344 59.9538L53.2322 59.2366L54.1125 59.1494C58.9042 58.7844 63.657 58.0195 68.3212 56.8629L70.0931 56.4241L70.5909 58.1819C74.2978 71.2488 73.17 80.6088 67.5 83.8741C66.1291 84.662 64.5696 85.0616 62.9887 85.03V85.0329ZM47.6212 72.3625C53.4656 78.0607 59.0034 81.2838 62.9719 81.2838H62.9859C63.9816 81.2838 64.8759 81.0644 65.6241 80.6397C69.345 78.4854 70.02 71.0154 67.4409 60.9382C63.4439 61.8334 59.3914 62.4601 55.3106 62.8141C52.9616 66.1644 50.3928 69.3552 47.6212 72.3654V72.3625ZM70.0931 33.5444L68.3212 33.0916C63.6536 31.9513 58.9022 31.1866 54.1125 30.805L53.2322 30.7319L52.7344 30.0147C50.014 26.0641 46.9768 22.3412 43.6528 18.8829L42.3787 17.5779L43.6528 16.2729C53.0128 6.66254 61.9341 2.86848 67.5 6.07754C73.17 9.34286 74.2978 18.7197 70.5909 31.7866L70.0931 33.5444ZM55.3134 27.1432C59.3939 27.5066 63.4461 28.1379 67.4437 29.0332C70.0228 18.956 69.3478 11.4832 65.6269 9.33161C61.92 7.19411 54.9478 10.4735 47.6241 17.6088C50.388 20.6206 52.9564 23.8061 55.3134 27.146V27.1432ZM27.0253 85.0329C25.4419 85.061 23.8753 84.6672 22.5 83.8769C16.83 80.6116 15.7022 71.2488 19.4091 58.1847L19.9069 56.4269L21.6788 56.8657C26.0156 57.9654 30.7913 58.7247 35.8734 59.1522L36.7537 59.2394L37.2516 59.9566C39.972 63.9073 43.0092 67.6302 46.3331 71.0885L47.6072 72.3935L46.3331 73.6985C39.2288 81.0222 32.3578 85.0357 27.0253 85.0357V85.0329ZM22.5591 60.9382C19.98 71.0154 20.655 78.4882 24.3759 80.6397C28.0828 82.7491 35.0409 79.4979 42.3787 72.3625C39.6072 69.3524 37.0384 66.1616 34.6894 62.8113C30.6085 62.4583 26.5559 61.8316 22.5591 60.9354V60.9382ZM45 63.295C41.9091 63.295 38.745 63.1629 35.5669 62.8985L34.6866 62.8254L34.1747 62.0941C32.3795 59.5147 30.6933 56.8611 29.1206 54.1404C27.5446 51.4195 26.0837 48.6336 24.7416 45.79L24.3619 44.9857L24.7416 44.1813C27.4304 38.4955 30.5856 33.0422 34.1747 27.8772L34.6866 27.146L35.5669 27.0729C41.8445 26.5441 48.1555 26.5441 54.4331 27.0729L55.3134 27.146L55.8253 27.8772C59.4191 33.0392 62.5745 38.4929 65.2584 44.1813L65.6381 44.9857L65.2584 45.79C62.5799 51.4812 59.4242 56.9354 55.8253 62.0941L55.3134 62.8254L54.4331 62.8985C51.2956 63.161 48.1485 63.2933 45 63.295V63.295ZM36.7678 59.2225C42.3056 59.6472 47.6944 59.6472 53.2462 59.2225C56.3426 54.6885 59.0943 49.9286 61.4784 44.9829C59.1044 40.0289 56.3473 35.2679 53.2322 30.7432C47.7523 30.3185 42.2477 30.3185 36.7678 30.7432C33.6505 35.2665 30.8933 40.0277 28.5216 44.9829C30.9063 49.9311 33.663 54.6913 36.7678 59.2225V59.2225Z" fill="#66FCF1"/>
</svg>
